<?xml version="1.0" standalone="no"?>
<!DOCTYPE svg PUBLIC "-//W3C//DTD SVG 20010904//EN"
 "http://www.w3.org/TR/2001/REC-SVG-20010904/DTD/svg10.dtd">
<svg version="1.0" xmlns="http://www.w3.org/2000/svg"
 width="701.000000pt" height="715.000000pt" viewBox="0 0 701.000000 715.000000"
 preserveAspectRatio="xMidYMid meet">

<g transform="translate(0.000000,715.000000) scale(0.100000,-0.100000)"
fill="#000000" stroke="none">
<path d="M1040 7120 c0 -18 6 -33 15 -36 12 -5 15 -27 15 -115 0 -82 3 -110
14 -116 8 -4 15 -17 17 -28 3 -14 13 -21 36 -23 26 -3 32 1 35 20 3 22 8 23
95 26 89 3 92 2 95 -20 2 -18 9 -23 33 -23 23 0 31 5 33 23 2 12 10 22 18 22
11 0 14 21 14 110 0 89 3 112 15 116 9 4 15 19 15 40 0 27 -4 34 -19 34 -15 0
-20 -10 -25 -45 -4 -25 -5 -49 -1 -55 3 -5 3 -20 -1 -34 -5 -21 -15 -27 -62
-37 -64 -13 -223 -8 -264 9 -27 11 -28 14 -28 87 0 73 -1 75 -25 75 -21 0 -25
-5 -25 -30z m130 -189 c15 -29 13 -39 -15 -57 -24 -16 -27 -16 -45 1 -23 20
-26 45 -8 63 18 18 56 14 68 -7z m258 7 c18 -18 14 -45 -10 -62 -37 -26 -79
14 -58 55 12 21 50 25 68 7z"/>
<path d="M2910 7121 c0 -16 7 -34 15 -41 12 -10 15 -36 15 -116 0 -77 3 -105
14 -111 8 -4 15 -17 17 -28 3 -13 14 -21 32 -23 21 -3 29 2 37 22 9 25 12 26
100 26 90 0 90 0 90 -26 0 -23 3 -25 32 -22 24 2 34 9 37 23 2 11 9 24 17 28
11 6 14 34 14 116 0 88 3 110 15 115 9 3 15 18 15 36 0 25 -4 30 -25 30 -24 0
-25 -2 -25 -75 0 -64 -3 -76 -20 -85 -28 -15 -174 -24 -242 -16 -78 10 -90 21
-93 87 -3 86 -4 89 -25 89 -15 0 -20 -7 -20 -29z m130 -191 c21 -38 -22 -80
-61 -60 -19 10 -27 59 -12 73 15 15 63 7 73 -13z m264 -2 c15 -24 -3 -52 -37
-56 -33 -4 -53 28 -37 59 14 25 58 23 74 -3z"/>
<path d="M4770 7127 c0 -13 8 -31 19 -41 15 -14 18 -33 20 -124 1 -65 5 -108
12 -111 6 -2 15 -14 20 -28 12 -33 62 -30 67 5 3 21 8 22 93 22 86 0 90 -1 99
-25 12 -32 60 -36 60 -5 0 10 9 24 20 30 18 10 20 21 20 119 0 88 3 110 15
115 9 3 15 18 15 36 0 25 -4 30 -25 30 -24 0 -25 -2 -25 -75 0 -73 -1 -76 -27
-87 -70 -28 -304 -18 -325 15 -4 7 -8 42 -8 80 0 65 -1 67 -25 67 -20 0 -25
-5 -25 -23z m134 -193 c10 -25 7 -42 -10 -58 -20 -21 -30 -20 -54 4 -24 24
-25 34 -4 54 20 21 60 21 68 0z m266 -3 c22 -42 -27 -86 -61 -55 -22 20 -25
44 -7 62 18 18 56 14 68 -7z"/>
<path d="M6640 7120 c0 -18 6 -33 15 -36 12 -5 15 -27 15 -109 0 -88 3 -105
20 -125 11 -13 20 -29 20 -37 0 -8 11 -13 30 -13 23 0 31 5 36 25 6 24 9 25
94 25 84 0 89 -1 92 -22 2 -13 11 -24 21 -26 27 -5 24 64 -3 71 -15 4 -20 14
-20 37 0 23 5 33 20 37 11 3 20 11 20 17 0 9 -28 11 -107 9 -73 -3 -123 0
-153 9 l-45 14 -3 77 c-3 74 -4 77 -27 77 -21 0 -25 -5 -25 -30z m134 -192
c24 -39 -44 -79 -74 -43 -21 25 3 67 37 63 14 -2 31 -11 37 -20z"/>
<path d="M13 6294 c-7 -3 -13 -19 -13 -35 l0 -29 121 0 c66 0 129 -5 140 -10
17 -9 19 -22 19 -104 0 -65 -4 -97 -13 -104 -20 -17 -155 -35 -212 -29 l-51 5
0 -66 -1 -67 92 3 c86 3 93 2 98 -17 7 -28 67 -31 67 -3 0 9 8 22 18 28 15 10
18 28 20 115 2 75 6 107 17 119 21 23 19 63 -4 84 -10 9 -21 30 -25 46 -8 44
-52 61 -165 66 -53 2 -102 1 -108 -2z m249 -341 c23 -21 23 -36 -2 -58 -41
-37 -97 24 -58 63 17 17 38 15 60 -5z"/>
<path d="M1856 6289 c-47 -11 -76 -35 -76 -61 0 -10 -9 -27 -20 -38 -24 -24
-27 -85 -5 -94 12 -4 15 -27 15 -116 0 -68 4 -110 10 -110 6 0 15 -11 20 -25
12 -32 65 -36 73 -5 5 18 14 20 95 20 81 0 90 -2 95 -20 7 -26 67 -29 67 -4 0
9 7 22 16 28 13 10 16 31 15 113 -1 78 2 105 14 116 20 20 20 83 0 91 -8 3
-15 12 -15 20 0 29 -22 64 -49 76 -34 16 -205 22 -255 9z m273 -68 c10 -6 13
-34 12 -107 -1 -54 -5 -102 -9 -106 -4 -4 -42 -13 -85 -20 -82 -12 -216 0
-244 23 -17 15 -18 190 -1 207 14 14 305 17 327 3z m-268 -261 c28 -16 25 -58
-6 -72 -21 -9 -28 -8 -45 7 -24 22 -25 38 -4 59 18 19 28 20 55 6z m267 -2
c35 -35 -15 -99 -53 -68 -30 25 -12 80 25 80 9 0 21 -5 28 -12z"/>
<path d="M3740 6294 c-60 -12 -80 -26 -92 -66 -6 -22 -18 -42 -25 -45 -19 -7
-17 -79 2 -87 12 -4 15 -27 15 -116 0 -89 3 -112 15 -116 8 -4 15 -15 15 -25
0 -15 7 -19 35 -19 28 0 35 4 35 20 0 19 7 20 95 20 88 0 95 -1 95 -20 0 -28
56 -29 65 -1 3 11 12 22 20 25 12 4 15 28 15 116 0 89 3 112 15 116 10 4 15
20 15 44 0 24 -5 40 -15 44 -8 3 -15 12 -15 20 0 32 -24 65 -54 76 -34 12
-195 22 -236 14z m254 -70 c13 -5 16 -24 16 -109 l0 -103 -37 -13 c-48 -17
-226 -17 -275 0 -35 12 -38 15 -39 54 -3 90 4 162 15 169 13 9 298 11 320 2z
m-260 -270 c21 -21 20 -37 -4 -59 -27 -25 -70 -7 -70 29 0 40 46 59 74 30z
m264 4 c39 -39 -17 -100 -58 -63 -24 22 -25 33 -3 57 19 21 44 23 61 6z"/>
<path d="M5591 6290 c-55 -12 -65 -21 -80 -70 -6 -22 -16 -40 -21 -40 -13 0
-13 -73 1 -87 6 -6 10 -53 10 -112 0 -90 3 -103 20 -114 10 -6 19 -20 19 -29
0 -27 60 -25 67 2 5 18 14 20 99 20 87 0 94 -1 94 -20 0 -31 57 -28 70 4 5 13
14 27 19 31 7 4 11 48 11 111 0 84 3 106 15 110 17 7 22 84 5 84 -6 0 -19 20
-30 45 -13 31 -28 49 -47 56 -38 15 -198 20 -252 9z m266 -71 c22 -8 23 -13
23 -103 0 -66 -4 -97 -14 -105 -24 -20 -166 -33 -246 -22 -40 5 -78 15 -84 21
-18 18 -14 199 4 210 19 12 285 11 317 -1z m-259 -261 c35 -35 -15 -99 -53
-68 -30 25 -12 80 25 80 9 0 21 -5 28 -12z m266 -4 c21 -21 20 -37 -4 -59 -27
-25 -70 -7 -70 29 0 40 46 59 74 30z"/>
<path d="M1143 5300 c-41 -9 -63 -27 -63 -50 0 -9 -9 -29 -20 -43 -24 -30 -27
-85 -5 -93 12 -5 15 -27 15 -115 0 -87 3 -110 16 -117 8 -5 17 -17 18 -28 2
-12 12 -20 29 -22 21 -3 29 2 37 22 9 25 12 26 99 26 85 0 90 -1 93 -22 5 -35
55 -38 67 -5 6 14 15 28 20 32 7 4 11 47 11 109 0 80 3 106 15 116 18 15 20
87 4 92 -7 2 -17 19 -23 38 -17 54 -60 70 -181 69 -55 -1 -115 -5 -132 -9z
m293 -71 c8 -14 13 -123 7 -170 -5 -36 -6 -37 -64 -49 -65 -14 -215 -9 -261 9
-28 10 -28 11 -28 109 0 54 3 102 7 105 12 12 331 8 339 -4z m-266 -269 c8
-14 8 -26 0 -40 -19 -35 -80 -20 -80 20 0 40 61 55 80 20z m264 -2 c14 -23 -3
-52 -33 -56 -42 -6 -67 38 -39 66 17 17 58 11 72 -10z"/>
<path d="M3010 5303 c-34 -7 -58 -29 -65 -65 -4 -16 -13 -32 -21 -35 -19 -7
-18 -77 1 -93 13 -10 15 -34 14 -113 -2 -80 1 -102 13 -111 9 -6 17 -20 19
-31 6 -31 63 -28 67 3 3 22 6 23 95 20 87 -3 92 -4 95 -26 3 -19 9 -23 35 -20
23 2 33 9 36 23 2 11 9 24 17 28 11 6 14 34 14 116 0 88 3 110 15 115 20 7 21
82 0 89 -8 4 -18 20 -22 38 -14 53 -58 69 -183 68 -58 -1 -116 -4 -130 -6z
m295 -173 l0 -105 -50 -13 c-66 -17 -246 -10 -278 11 -21 14 -23 23 -24 103
-1 49 3 95 9 102 8 9 52 12 177 10 l166 -3 0 -105z m-265 -170 c16 -30 -4 -60
-39 -60 -29 0 -41 15 -41 50 0 34 63 41 80 10z m264 -2 c15 -25 -3 -52 -37
-56 -34 -4 -58 38 -37 63 17 20 59 16 74 -7z"/>
<path d="M4875 5303 c-30 -8 -65 -44 -65 -68 0 -11 -9 -28 -20 -38 -11 -9 -20
-27 -20 -40 0 -13 9 -32 20 -42 18 -16 20 -31 20 -127 0 -67 4 -108 10 -108 6
0 15 -12 20 -26 13 -34 63 -31 68 4 3 21 8 22 93 22 86 0 90 -1 99 -25 12 -32
60 -36 60 -5 0 10 9 24 20 30 18 10 20 21 20 121 0 88 3 111 15 115 20 8 20
73 1 80 -8 3 -18 18 -21 34 -3 15 -17 38 -31 51 -24 22 -34 24 -147 26 -67 1
-131 -1 -142 -4z m303 -171 l3 -102 -28 -11 c-72 -28 -304 -18 -325 14 -9 14
-11 168 -2 191 6 14 28 16 178 14 l171 -3 3 -103z m-272 -167 c4 -8 3 -26 0
-40 -5 -20 -13 -25 -36 -25 -36 0 -56 30 -40 60 13 24 68 28 76 5z m264 -5 c8
-14 8 -26 0 -40 -19 -35 -80 -20 -80 20 0 40 61 55 80 20z"/>
<path d="M6745 5303 c-31 -8 -65 -44 -65 -69 0 -13 -9 -28 -20 -34 -25 -13
-28 -77 -5 -86 12 -5 15 -27 15 -113 0 -94 2 -109 20 -124 11 -9 20 -24 20
-32 0 -26 49 -18 62 10 11 24 15 25 99 25 83 0 88 -1 91 -22 2 -13 11 -24 21
-26 27 -5 24 64 -3 71 -15 4 -20 14 -20 37 0 23 5 33 20 37 11 3 20 10 20 17
0 7 -40 11 -127 12 -74 0 -140 5 -156 12 l-28 12 3 102 3 103 153 3 152 3 0
28 c0 17 -6 31 -16 35 -18 7 -209 6 -239 -1z m17 -330 c34 -31 13 -78 -33 -71
-35 5 -46 31 -26 62 20 30 33 32 59 9z"/>
<path d="M23 4324 c-18 -4 -23 -12 -23 -37 l0 -32 125 4 c89 2 130 -1 140 -9
20 -16 22 -192 2 -208 -20 -17 -145 -35 -206 -29 l-57 5 0 -67 -1 -66 96 0
c79 0 96 -3 96 -15 0 -10 12 -16 33 -18 24 -2 32 1 32 12 0 9 8 24 19 35 16
16 19 35 19 121 0 83 4 105 16 112 21 12 20 57 -1 80 -10 11 -22 34 -28 51 -6
19 -21 37 -38 45 -28 14 -184 25 -224 16z m241 -340 c23 -22 20 -41 -8 -59
-31 -21 -66 -5 -66 28 0 44 43 62 74 31z"/>
<path d="M1861 4320 c-52 -11 -78 -32 -86 -70 -3 -16 -13 -31 -21 -34 -20 -8
-19 -82 1 -90 12 -4 15 -26 15 -110 0 -63 4 -107 11 -111 5 -4 14 -18 19 -31
12 -30 52 -32 71 -3 12 18 24 21 84 21 102 0 102 0 108 -22 7 -28 67 -29 67 0
0 10 7 23 15 27 11 7 15 33 16 116 1 83 5 110 15 114 18 7 19 79 1 90 -7 4
-18 24 -23 43 -6 22 -19 40 -36 48 -34 16 -200 24 -257 12z m266 -68 c11 -7
17 -73 15 -164 -2 -44 -4 -47 -39 -60 -22 -7 -81 -13 -138 -13 -57 0 -116 6
-137 13 l-38 14 0 97 c0 62 4 101 12 109 13 13 304 17 325 4z m-259 -264 c29
-29 -2 -84 -42 -72 -38 12 -47 42 -20 68 18 19 45 21 62 4z m260 0 c34 -34 -6
-90 -48 -68 -35 19 -20 80 20 80 9 0 21 -5 28 -12z"/>
<path d="M3727 4320 c-59 -15 -74 -27 -81 -61 -3 -18 -13 -37 -22 -43 -21 -16
-22 -76 -1 -88 14 -7 17 -27 17 -118 0 -69 4 -110 10 -110 6 0 15 -11 20 -25
12 -32 70 -37 70 -6 0 25 19 31 95 31 76 0 95 -6 95 -31 0 -30 58 -26 70 5 5
13 14 27 19 31 7 4 11 49 11 116 0 90 3 109 15 109 19 0 21 75 2 87 -7 4 -17
21 -22 37 -18 51 -49 65 -160 71 -55 2 -117 0 -138 -5z m267 -66 c13 -5 16
-24 16 -109 l0 -103 -37 -13 c-49 -17 -216 -17 -270 -1 l-43 13 0 104 c0 73 4
105 13 108 18 8 302 8 321 1z m-260 -270 c22 -22 20 -41 -8 -59 -29 -19 -54
-10 -63 23 -10 42 40 68 71 36z m257 6 c26 -14 25 -56 -2 -70 -16 -9 -26 -8
-45 5 -28 18 -31 37 -8 59 18 19 28 20 55 6z"/>
<path d="M5595 4320 c-53 -10 -85 -37 -85 -71 0 -11 -7 -22 -15 -25 -19 -8
-20 -80 -1 -99 10 -10 14 -43 14 -116 0 -83 3 -105 16 -114 9 -7 16 -20 16
-29 0 -25 60 -22 67 4 5 20 16 22 108 22 78 0 85 -2 85 -22 0 -16 7 -20 30
-20 18 0 30 5 30 13 0 8 9 22 20 32 18 16 20 31 20 127 0 89 3 108 15 108 20
0 21 76 1 87 -8 4 -21 25 -29 46 -10 24 -26 41 -44 48 -38 14 -187 20 -248 9z
m273 -72 c17 -17 16 -192 -1 -206 -28 -23 -153 -36 -239 -23 -45 6 -87 16 -93
22 -5 5 -10 52 -10 105 0 73 4 97 15 104 23 15 313 13 328 -2z m-262 -274 c16
-24 16 -26 -3 -45 -26 -27 -73 -11 -73 24 0 50 49 63 76 21z m258 10 c9 -8 16
-22 16 -29 0 -18 -27 -45 -45 -45 -38 0 -59 61 -27 79 24 15 38 13 56 -5z"/>
<path d="M1118 3325 c-15 -9 -31 -30 -39 -52 -6 -21 -18 -42 -25 -46 -19 -11
-18 -76 1 -83 12 -5 15 -28 15 -115 0 -85 3 -111 14 -115 8 -3 17 -16 20 -30
9 -34 53 -34 66 1 9 24 13 25 95 25 83 0 86 -1 95 -26 13 -34 63 -31 68 4 2
12 10 22 18 22 11 0 14 21 14 109 0 84 3 111 15 121 8 7 15 29 15 50 0 24 -5
40 -15 44 -8 3 -15 14 -15 25 0 11 -11 33 -24 48 -24 28 -25 28 -158 31 -103
1 -139 -1 -160 -13z m323 -82 c6 -16 7 -58 3 -105 -6 -66 -10 -81 -28 -91 -28
-16 -261 -15 -298 1 -28 11 -28 12 -28 110 0 54 3 102 7 105 3 4 80 7 170 7
l163 0 11 -27z m-271 -253 c22 -40 -22 -80 -58 -54 -28 19 -28 49 -1 68 24 17
45 12 59 -14z m265 -20 c0 -12 -9 -29 -20 -36 -18 -12 -24 -11 -43 2 -28 19
-28 38 -1 65 18 18 23 19 42 6 12 -8 22 -25 22 -37z"/>
<path d="M2994 3331 c-26 -11 -54 -49 -54 -72 0 -9 -7 -22 -15 -29 -18 -15
-20 -71 -2 -88 8 -9 12 -48 13 -113 1 -72 5 -104 16 -117 8 -9 18 -25 21 -34
10 -28 56 -23 67 7 9 24 13 25 95 25 83 0 86 -1 95 -26 8 -20 16 -25 37 -22
17 2 27 10 29 22 1 11 10 23 18 28 13 7 16 29 16 112 0 80 3 106 15 116 21 18
19 67 -5 97 -11 14 -20 33 -20 43 0 9 -9 25 -21 36 -18 16 -39 19 -153 21 -72
2 -141 -1 -152 -6z m314 -169 l3 -102 -28 -11 c-82 -31 -303 -18 -322 19 -9
19 -13 157 -5 185 5 16 20 17 177 15 l172 -3 3 -103z m0 -184 c2 -8 -6 -25
-16 -38 -15 -19 -22 -21 -39 -11 -34 18 -40 51 -13 73 20 16 25 17 44 5 12 -8
22 -21 24 -29z m-267 11 c9 -18 7 -25 -15 -47 -25 -25 -26 -25 -46 -7 -11 10
-20 26 -20 35 0 41 61 55 81 19z"/>
<path d="M4870 3333 c-29 -11 -60 -47 -60 -69 0 -13 -9 -28 -20 -34 -27 -14
-27 -71 -1 -87 17 -11 19 -25 19 -120 1 -70 5 -109 12 -111 6 -2 16 -15 21
-29 12 -33 62 -30 67 5 3 22 6 23 95 20 87 -3 92 -4 95 -25 5 -31 62 -34 62
-3 0 10 9 24 20 30 18 10 20 21 20 119 0 88 3 110 15 115 19 7 20 72 1 83 -7
4 -19 25 -26 46 -18 55 -52 67 -192 66 -62 0 -120 -3 -128 -6z m308 -170 c3
-95 1 -103 -19 -113 -55 -30 -310 -20 -331 13 -9 14 -11 168 -2 191 6 14 28
16 178 14 l171 -3 3 -102z m-285 -157 c34 -26 7 -89 -34 -79 -50 13 -41 87 11
92 3 0 13 -6 23 -13z m281 -19 c23 -36 -36 -74 -70 -47 -18 16 -18 39 2 61 18
20 51 13 68 -14z"/>
<path d="M6724 3326 c-32 -14 -44 -33 -44 -66 0 -11 -9 -24 -20 -30 -25 -13
-28 -77 -5 -86 12 -5 15 -27 15 -110 0 -92 2 -106 20 -121 11 -10 20 -25 20
-35 0 -13 8 -18 29 -18 22 0 30 6 35 25 6 24 9 25 95 25 85 0 90 -1 93 -22 2
-13 11 -24 21 -26 26 -5 24 54 -3 68 -29 16 -24 80 6 80 8 0 14 6 14 14 0 12
-16 14 -87 9 -94 -6 -202 9 -215 30 -9 14 -11 168 -2 191 5 14 29 16 156 16
l149 0 -3 33 -3 32 -120 2 c-84 2 -129 -2 -151 -11z m38 -323 c24 -22 23 -48
-4 -67 -44 -31 -91 32 -48 66 27 22 29 22 52 1z"/>
<path d="M13 2353 c-7 -2 -13 -18 -13 -34 l0 -29 128 0 c86 0 132 -4 140 -12
8 -8 12 -46 12 -106 l0 -93 -37 -17 c-27 -11 -68 -16 -138 -17 l-101 0 0 -65
-1 -65 94 3 c89 3 95 2 100 -17 7 -28 63 -30 63 -3 0 9 9 23 20 30 18 11 20
23 20 121 0 88 3 110 15 115 22 8 19 60 -5 81 -11 10 -20 26 -20 35 0 30 -33
57 -82 69 -47 11 -172 14 -195 4z m251 -339 c20 -20 20 -27 -3 -55 -16 -21
-22 -22 -45 -11 -17 8 -26 19 -26 35 0 44 43 62 74 31z"/>
<path d="M1852 2351 c-42 -11 -69 -36 -77 -71 -3 -16 -13 -31 -21 -34 -20 -8
-20 -86 1 -86 12 0 15 -19 15 -115 0 -72 4 -115 10 -115 6 0 15 -11 20 -25 12
-32 65 -36 73 -5 5 18 14 20 95 20 81 0 90 -2 95 -20 7 -26 67 -29 67 -4 0 9
7 22 15 28 10 8 15 38 17 115 2 68 7 109 15 117 14 14 18 84 4 84 -4 0 -16 20
-25 44 -11 28 -26 47 -44 56 -33 15 -214 23 -260 11z m288 -131 c3 -36 3 -84
2 -107 -3 -36 -8 -43 -35 -53 -50 -18 -195 -23 -257 -8 l-55 13 -3 90 c-5 147
-20 136 176 133 l167 -3 5 -65z m-270 -205 c15 -19 6 -61 -16 -69 -42 -16 -75
24 -54 64 13 24 52 27 70 5z m258 3 c35 -35 -15 -99 -53 -68 -30 25 -12 80 25
80 9 0 21 -5 28 -12z"/>
<path d="M3735 2353 c-53 -13 -84 -35 -91 -66 -4 -18 -15 -38 -25 -45 -22 -15
-18 -71 6 -84 12 -7 15 -30 15 -119 0 -85 3 -111 14 -115 8 -3 16 -14 19 -25
7 -28 67 -27 67 1 0 19 7 20 95 20 88 0 95 -1 95 -20 0 -32 57 -28 70 5 5 14
14 25 20 25 6 0 10 42 10 110 0 89 3 112 15 116 10 4 15 20 15 44 0 24 -5 40
-15 44 -8 3 -15 14 -15 24 0 36 -38 70 -91 81 -50 11 -166 13 -204 4z m263
-71 c8 -3 12 -34 12 -107 l0 -103 -37 -13 c-51 -17 -228 -18 -275 -1 l-38 14
0 103 c0 73 4 105 13 109 14 6 306 5 325 -2z m-264 -268 c9 -8 16 -22 16 -29
0 -18 -27 -45 -45 -45 -19 0 -45 28 -45 49 0 38 45 54 74 25z m264 4 c39 -39
-17 -100 -58 -63 -24 22 -25 38 -4 59 18 19 45 21 62 4z"/>
<path d="M5590 2349 c-47 -9 -80 -38 -80 -69 0 -10 -7 -23 -15 -30 -17 -14
-21 -86 -4 -92 6 -2 12 -48 14 -113 3 -85 7 -112 19 -121 9 -6 16 -19 16 -28
0 -25 60 -22 67 4 5 18 14 20 99 20 87 0 94 -1 94 -20 0 -15 7 -20 28 -20 20
1 33 10 50 36 19 31 22 49 22 139 0 82 3 104 15 109 17 6 22 76 5 76 -5 0 -20
21 -32 47 -19 40 -30 50 -63 60 -46 13 -170 15 -235 2z m279 -73 c8 -9 11 -46
9 -107 -3 -93 -3 -94 -33 -108 -40 -19 -238 -21 -282 -3 -17 8 -34 19 -36 25
-2 7 -4 52 -3 100 1 64 5 90 15 96 8 5 83 10 166 10 121 2 154 -1 164 -13z
m-265 -267 c17 -25 12 -45 -15 -60 -26 -14 -59 5 -59 34 0 47 48 63 74 26z
m260 5 c9 -8 16 -22 16 -29 0 -18 -27 -45 -45 -45 -38 0 -59 61 -27 79 24 15
38 13 56 -5z"/>
<path d="M1122 1356 c-33 -15 -36 -20 -46 -68 -4 -16 -13 -28 -21 -28 -21 0
-21 -78 0 -86 12 -5 15 -27 15 -115 0 -82 3 -110 14 -116 8 -4 15 -17 17 -28
3 -13 14 -21 32 -23 21 -3 29 2 37 22 9 25 12 26 99 26 85 0 90 -1 93 -22 2
-18 10 -23 33 -23 23 0 31 5 33 23 2 12 10 22 18 22 11 0 14 22 14 114 0 92 3
115 15 120 19 7 21 82 1 89 -7 3 -16 19 -19 36 -11 53 -45 66 -182 69 -89 2
-128 -2 -153 -12z m320 -106 c11 -75 -1 -159 -26 -173 -30 -17 -273 -16 -303
1 -21 12 -23 20 -23 111 0 54 3 101 7 105 4 3 81 5 172 4 l166 -3 7 -45z m-4
-244 c8 -37 -48 -62 -76 -34 -17 17 -15 35 9 59 18 18 23 19 42 6 12 -8 23
-22 25 -31z m-268 14 c8 -14 8 -26 0 -40 -19 -35 -80 -20 -80 20 0 40 61 55
80 20z"/>
<path d="M3003 1363 c-27 -5 -63 -48 -63 -75 0 -10 -7 -21 -15 -24 -18 -7 -20
-75 -3 -92 8 -8 12 -45 10 -112 -1 -86 1 -101 17 -112 10 -7 20 -22 22 -33 3
-13 14 -21 32 -23 21 -3 29 2 37 22 9 25 12 26 99 26 85 0 90 -1 93 -22 4 -31
61 -33 66 -3 3 11 10 24 18 28 11 6 14 34 14 116 0 88 3 110 15 115 20 7 21
86 1 86 -8 0 -17 15 -20 35 -11 58 -41 70 -181 72 -66 1 -130 -1 -142 -4z
m305 -171 l3 -102 -27 -11 c-40 -14 -171 -23 -236 -15 -84 11 -91 19 -94 116
-5 126 -13 121 184 118 l167 -3 3 -103z m-284 -155 c26 -19 18 -71 -12 -75
-46 -7 -69 40 -36 72 19 19 25 20 48 3z m280 -19 c14 -23 -3 -52 -33 -56 -42
-6 -67 38 -39 66 17 17 58 11 72 -10z"/>
<path d="M4873 1363 c-27 -5 -63 -48 -63 -74 0 -10 -9 -23 -20 -29 -26 -14
-26 -63 0 -88 17 -15 20 -30 19 -93 -2 -120 0 -139 15 -139 8 0 16 -10 18 -22
2 -18 10 -23 33 -23 23 0 31 5 33 23 3 21 8 22 93 22 86 0 90 -1 99 -25 11
-29 60 -37 60 -10 0 8 9 23 20 32 18 15 20 30 20 124 0 86 3 108 15 113 23 9
20 73 -5 86 -11 6 -20 20 -20 31 0 35 -19 58 -58 69 -36 9 -213 12 -259 3z
m305 -164 c2 -76 -1 -100 -13 -112 -33 -33 -272 -34 -322 -2 -21 14 -23 23
-23 99 0 47 3 92 6 100 6 14 28 16 178 14 l171 -3 3 -96z m-270 -193 c9 -42
-58 -64 -78 -26 -12 22 0 55 22 63 18 6 52 -17 56 -37z m262 14 c15 -28 -4
-60 -34 -60 -32 0 -50 24 -42 55 5 20 13 25 36 25 19 0 33 -7 40 -20z"/>
<path d="M6731 1359 c-29 -11 -50 -37 -51 -62 0 -9 -9 -25 -20 -34 -24 -21
-28 -81 -5 -89 12 -5 15 -27 15 -109 0 -73 4 -107 13 -117 8 -7 19 -23 26 -36
17 -31 57 -30 65 3 6 24 9 25 95 25 85 0 90 -1 93 -22 2 -13 11 -24 21 -26 14
-3 17 4 17 32 0 25 -4 36 -15 36 -8 0 -18 12 -21 27 -5 20 -2 30 14 44 41 32
27 39 -71 32 -97 -6 -195 8 -209 30 -9 14 -11 168 -2 191 5 14 28 16 155 16
l149 0 0 29 c0 17 -6 31 -16 35 -25 10 -227 6 -253 -5z m43 -341 c15 -24 -3
-52 -37 -56 -33 -4 -53 28 -37 59 14 25 58 23 74 -3z"/>
<path d="M18 384 c-12 -4 -18 -16 -18 -35 l0 -29 121 0 c66 0 129 -5 140 -10
17 -9 19 -22 19 -106 l0 -95 -37 -16 c-26 -11 -70 -17 -141 -17 l-103 -1 5
-29 c3 -16 6 -32 6 -37 0 -5 40 -9 90 -9 80 0 90 2 90 18 0 23 19 42 41 42 23
0 51 -29 45 -46 -3 -8 0 -14 8 -14 9 0 13 24 13 92 1 72 4 93 17 100 22 12 20
61 -3 82 -11 10 -21 30 -23 44 -5 46 -43 62 -153 67 -55 2 -108 2 -117 -1z"/>
<path d="M1873 381 c-58 -7 -89 -30 -98 -71 -3 -16 -13 -31 -21 -34 -20 -8
-20 -86 1 -86 12 0 15 -17 15 -95 0 -57 4 -95 10 -95 6 0 10 9 10 20 0 28 40
46 69 31 11 -7 21 -21 21 -31 0 -18 7 -20 89 -20 84 0 90 1 93 21 7 49 69 49
76 0 2 -11 8 -21 13 -21 5 0 9 38 9 84 0 62 4 89 15 100 8 8 15 31 15 51 0 22
-6 38 -15 41 -8 4 -15 16 -15 29 0 69 -109 98 -287 76z m251 -67 c13 -5 16
-24 16 -109 l0 -103 -37 -13 c-50 -17 -243 -15 -280 3 -27 13 -28 16 -31 107
-2 60 1 98 9 107 9 11 45 14 159 14 82 0 155 -3 164 -6z"/>
<path d="M3750 384 c-72 -9 -110 -40 -110 -88 0 -8 -7 -16 -15 -20 -10 -3 -15
-19 -15 -46 0 -29 4 -40 15 -40 12 0 15 -17 15 -95 0 -57 4 -95 10 -95 6 0 10
8 10 19 0 48 74 53 86 6 6 -24 9 -25 88 -25 74 0 82 2 91 22 22 49 76 49 83
-1 2 -11 8 -21 13 -21 5 0 9 41 9 90 0 71 3 92 15 96 19 8 21 79 2 91 -7 4
-17 21 -22 37 -17 50 -50 65 -150 70 -49 2 -106 2 -125 0z m248 -72 c9 -6 12
-35 10 -108 l-3 -99 -30 -14 c-64 -31 -313 -13 -316 22 -5 62 4 193 14 199 16
10 309 10 325 0z"/>
<path d="M5600 380 c-56 -9 -90 -34 -90 -69 0 -9 -9 -24 -20 -34 -15 -13 -18
-24 -13 -49 3 -18 11 -36 17 -40 7 -4 11 -42 11 -97 0 -66 3 -91 13 -91 6 0
12 8 12 18 0 22 19 42 39 42 22 0 50 -30 44 -46 -4 -11 12 -14 85 -14 86 0 90
1 96 24 11 45 71 45 82 0 13 -51 24 -20 24 66 0 71 3 92 15 96 23 9 20 76 -5
97 -11 9 -20 25 -20 35 0 57 -130 85 -290 62z m263 -72 c14 -7 17 -23 17 -102
0 -64 -4 -97 -13 -104 -26 -22 -143 -33 -233 -22 -48 5 -91 13 -96 18 -12 12
-22 133 -14 175 4 21 14 38 24 40 31 9 297 5 315 -5z"/>
</g>
</svg>
